# xmcd
# 
# Track frame offsets:
#     150
#     14167
#     29652
#     45400
#     58515
#     68355
#     80225
#     93645
#     108387
#     124632
#     139730
#     149132
#     169392
#     184692
#     210750
# 
# Disc length: 4440
# 
# Revision: 0
# Processed by: cddbd v1.5.2PL0 Copyright (c) Steve Scherf et al.
# Submitted via: fre:ac v1.0.31
# 
DISCID=da11560f
DTITLE=Edith Piaf - L'Essentiel
DYEAR=2004
DGENRE=Pop
TTITLE0=La Vie En Rose
TTITLE1=Hymne À L'Amour
TTITLE2=Exodus
TTITLE3=Au Bal De La Chance
TTITLE4=Johnny Tu N'Es Pas Un Ange
TTITLE5=Cri Du Coeur
TTITLE6=C'Est À Hambourg
TTITLE7=Padam Padam
TTITLE8=L'Accordéoniste
TTITLE9=Je Sais Comment
TTITLE10=L'Homme À La Moto
TTITLE11=Milord
TTITLE12=Mon Dieu
TTITLE13=Eden Blues
TTITLE14=Data track
EXTD=
EXTT0=
EXTT1=
EXTT2=
EXTT3=
EXTT4=
EXTT5=
EXTT6=
EXTT7=
EXTT8=
EXTT9=
EXTT10=
EXTT11=
EXTT12=
EXTT13=
EXTT14=
PLAYORDER=
